# xmcd
# Copyright (C) 1995-1998 Ti Kan
#
# Track frame offsets:
#       150
#       18272
#       38947
#       55025
#       74990
#       94735
#       112757
#       130085
#       149037
#       165247
#       186537
#       206100
#       223950
#       241197
#       259587
#       281177
#       301655
#       318162
#       334920
#
# Disc length: 4662 seconds
#
# Revision: 0
# Processed by: cddbd v1.5.2PL0 Copyright (c) Steve Scherf et al.
# Submitted via: CD-Transfer v1.0
#
DISCID=21123413
DTITLE=Michael Learns To Tock - 19 Love Songs
DYEAR=01
DGENRE=Blues
TTITLE0=The Ghost Of You
TTITLE1=The Actor
TTITLE2=Sleeping Child
TTITLE3=Complicated Heart
TTITLE4=25 Minutes
TTITLE5=Out Of The Blue
TTITLE6=I Wanna Dance
TTITLE7=That's Why (You Go Away)
TTITLE8=Love Will Never Lie
TTITLE9=How Many Hours
TTITLE10=I'm Gonna Be Around
TTITLE11=Nothing To Lose
TTITLE12=Paint My Love
TTITLE13=Breaking My Heart
TTITLE14=Strange Foreign Beauty
TTITLE15=You Took My Heart Away
TTITLE16=Blue Night
TTITLE17=More Than A Friend
TTITLE18=Forever And A Day
EXTD=
EXTT0=
EXTT1=
EXTT2=
EXTT3=
EXTT4=
EXTT5=
EXTT6=
EXTT7=
EXTT8=
EXTT9=
EXTT10=
EXTT11=
EXTT12=
EXTT13=
EXTT14=
EXTT15=
EXTT16=
EXTT17=
EXTT18=
PLAYORDER=
